<svg width="20" height="18" viewBox="0 0 20 18" fill="none" xmlns="http://www.w3.org/2000/svg">
<path d="M18 8.37111V14.75C18 15.8546 17.1046 16.75 16 16.75H4C2.89543 16.75 2 15.8546 2 14.75V8.37111M5.5 6.5C5.5 7.74264 4.49264 8.75 3.25 8.75C2.09397 8.75 1.14157 7.87818 1.01442 6.75615C0.995239 6.58688 1.02176 6.41657 1.06477 6.25173L2.10996 2.24516C2.3397 1.3645 3.13506 0.75 4.04519 0.75H15.9548C16.8649 0.75 17.6603 1.3645 17.89 2.24516L18.9352 6.25173C18.9782 6.41657 19.0048 6.58688 18.9856 6.75615C18.8584 7.87818 17.906 8.75 16.75 8.75C15.5074 8.75 14.5 7.74264 14.5 6.5M5.5 6.5C5.5 7.74264 6.50736 8.75 7.75 8.75C8.99264 8.75 10 7.74264 10 6.5M5.5 6.5L6 0.75M10 6.5C10 7.74264 11.0074 8.75 12.25 8.75C13.4926 8.75 14.5 7.74264 14.5 6.5M10 6.5V0.75M14.5 6.5L14 0.75" stroke="#121212" stroke-width="1.4" stroke-linecap="round" stroke-linejoin="round"/>
</svg>
