<svg width="18" height="11" viewBox="0 0 18 11" fill="none" xmlns="http://www.w3.org/2000/svg">
<path d="M0.5 10.962C0.358 10.962 0.239333 10.914 0.144 10.818C0.0480001 10.722 0 10.6027 0 10.46C0 10.3173 0.0480001 10.1987 0.144 10.104C0.24 10.0093 0.358667 9.96133 0.5 9.96H9.058C9.19933 9.96 9.318 10.0083 9.414 10.105C9.51 10.2017 9.558 10.3203 9.558 10.461C9.558 10.6017 9.51 10.7203 9.414 10.817C9.318 10.9137 9.19933 10.9617 9.058 10.961L0.5 10.962ZM0.5 6.173C0.358 6.173 0.239333 6.125 0.144 6.029C0.0480001 5.933 0 5.81433 0 5.673C0 5.531 0.0480001 5.412 0.144 5.316C0.24 5.22 0.358667 5.17233 0.5 5.173H3.962C4.10333 5.173 4.222 5.221 4.318 5.317C4.414 5.413 4.462 5.532 4.462 5.674C4.462 5.816 4.414 5.93467 4.318 6.03C4.222 6.12533 4.10333 6.173 3.962 6.173H0.5ZM0.5 1.385C0.358 1.385 0.239333 1.337 0.144 1.241C0.0480001 1.145 0 1.026 0 0.884001C0 0.742001 0.0480001 0.623334 0.144 0.528001C0.24 0.432667 0.358667 0.385001 0.5 0.385001H3.962C4.10333 0.385001 4.222 0.433001 4.318 0.529001C4.414 0.625001 4.462 0.743668 4.462 0.885001C4.462 1.02633 4.414 1.145 4.318 1.241C4.222 1.337 4.10333 1.385 3.962 1.385H0.5ZM10.923 8.019C9.80033 8.019 8.84367 7.631 8.053 6.855C7.26233 6.079 6.86633 5.13067 6.865 4.01C6.86367 2.88933 7.25967 1.941 8.053 1.165C8.84633 0.389001 9.80467 0.000667524 10.928 8.56898e-07C12.0513 -0.00066581 13.0077 0.387667 13.797 1.165C14.5863 1.941 14.981 2.886 14.981 4C14.981 4.44467 14.907 4.879 14.759 5.303C14.6103 5.727 14.3943 6.11333 14.111 6.462L17.646 9.939C17.7527 10.0283 17.806 10.1417 17.806 10.279C17.806 10.4163 17.7527 10.5387 17.646 10.646C17.5567 10.7393 17.4433 10.786 17.306 10.786C17.1673 10.786 17.0447 10.7393 16.938 10.646L13.404 7.169C13.042 7.43967 12.6493 7.649 12.226 7.797C11.802 7.945 11.3677 8.019 10.923 8.019ZM10.923 7.019C11.7723 7.019 12.4943 6.72733 13.089 6.144C13.6837 5.56067 13.981 4.84933 13.981 4.01C13.981 3.17067 13.6837 2.459 13.089 1.875C12.4943 1.291 11.7723 0.999334 10.923 1C10.0737 1.00067 9.35167 1.29233 8.757 1.875C8.16233 2.45767 7.865 3.16933 7.865 4.01C7.865 4.85067 8.16233 5.562 8.757 6.144C9.35167 6.726 10.0737 7.01767 10.923 7.019Z" fill="black"/>
</svg>
