<svg width="14" height="14" viewBox="0 0 14 14" fill="none" xmlns="http://www.w3.org/2000/svg">
<path d="M10.3333 2.99992H13.6667V4.33325H12.3333V12.9999C12.3333 13.1767 12.2631 13.3463 12.1381 13.4713C12.0131 13.5963 11.8435 13.6666 11.6667 13.6666H2.33334C2.15653 13.6666 1.98696 13.5963 1.86194 13.4713C1.73691 13.3463 1.66668 13.1767 1.66668 12.9999V4.33325H0.333344V2.99992H3.66668V0.999919C3.66668 0.823108 3.73691 0.653538 3.86194 0.528514C3.98696 0.40349 4.15653 0.333252 4.33334 0.333252H9.66668C9.84349 0.333252 10.0131 0.40349 10.1381 0.528514C10.2631 0.653538 10.3333 0.823108 10.3333 0.999919V2.99992ZM11 4.33325H3.00001V12.3333H11V4.33325ZM5.00001 6.33325H6.33334V10.3333H5.00001V6.33325ZM7.66668 6.33325H9.00001V10.3333H7.66668V6.33325ZM5.00001 1.66659V2.99992H9.00001V1.66659H5.00001Z" fill="#67667A"/>
</svg>
